<svg width="34" height="26" viewBox="0 0 34 26" fill="none" xmlns="http://www.w3.org/2000/svg">
<path d="M28.2166 1.01617L26.0833 2.68284L16.9999 9.43284L7.91659 2.61618L5.78325 0.949508C5.28068 0.53375 4.66717 0.274575 4.01873 0.204092C3.3703 0.133608 2.71543 0.254915 2.13527 0.552982C1.5551 0.851048 1.07513 1.31278 0.75482 1.88097C0.434509 2.44915 0.287933 3.09883 0.333253 3.74951V23.0662C0.333253 23.6673 0.572061 24.2439 0.997144 24.669C1.42223 25.094 1.99876 25.3328 2.59992 25.3328H7.91659V12.4662L16.9999 19.2828L26.0833 12.4662V25.3328H31.3999C32.0011 25.3328 32.5776 25.094 33.0027 24.669C33.4278 24.2439 33.6666 23.6673 33.6666 23.0662V3.74951C33.6979 3.10445 33.5411 2.46418 33.2153 1.90655C32.8896 1.34891 32.4088 0.897919 31.8315 0.608392C31.2542 0.318866 30.6053 0.203274 29.9635 0.275667C29.3218 0.348059 28.7149 0.605319 28.2166 1.01617Z" fill="#1E1E1E"/>
</svg>
