<svg width="36" height="30" viewBox="0 0 36 30" fill="none" xmlns="http://www.w3.org/2000/svg">
<path d="M35.8801 3.91949C34.9001 5.37949 33.6601 6.67949 32.2201 7.71949C32.2401 8.01949 32.2401 8.33949 32.2401 8.65949C32.2401 18.3595 24.8601 29.5395 11.3801 29.5395C7.24006 29.5395 3.38006 28.3195 0.120056 26.2395C0.700056 26.2995 1.28006 26.3395 1.88006 26.3395C5.32006 26.3395 8.48006 25.1595 10.9801 23.1995C9.45074 23.1679 7.9695 22.6594 6.74321 21.745C5.51692 20.8307 4.60683 19.5562 4.14006 18.0995C4.58006 18.1795 5.04006 18.2395 5.52006 18.2395C6.18006 18.2395 6.84006 18.1395 7.44006 17.9795C5.78126 17.639 4.29062 16.7369 3.21949 15.4253C2.14837 14.1137 1.56228 12.4729 1.56006 10.7795V10.6995C2.56006 11.2395 3.68006 11.5795 4.88006 11.6195C3.87566 10.9458 3.05277 10.0349 2.48417 8.96746C1.91557 7.90003 1.61878 6.70892 1.62006 5.49949C1.62006 4.15949 1.98006 2.89949 2.62006 1.81949C6.24006 6.25949 11.6401 9.17949 17.7401 9.47949C17.6201 8.93949 17.5401 8.37949 17.5401 7.79949C17.5454 5.85627 18.321 3.99445 19.6969 2.62225C21.0729 1.25006 22.9368 0.479485 24.8801 0.479492C27.0001 0.479492 28.9001 1.35949 30.2401 2.79949C31.9001 2.45949 33.4801 1.85949 34.9001 1.01949C34.3401 2.71949 33.1801 4.15949 31.6601 5.05949C33.1173 4.90022 34.5409 4.51563 35.8801 3.91949Z" fill="#1E1E1E"/>
</svg>
